<?xml version="1.0" standalone="no"?>
<!DOCTYPE svg PUBLIC "-//W3C//DTD SVG 20010904//EN"
 "http://www.w3.org/TR/2001/REC-SVG-20010904/DTD/svg10.dtd">
<svg version="1.0" xmlns="http://www.w3.org/2000/svg"
 width="473.000000pt" height="420.000000pt" viewBox="0 0 473.000000 420.000000"
 preserveAspectRatio="xMidYMid meet">

<g transform="translate(0.000000,420.000000) scale(0.100000,-0.100000)"
fill="#000000" stroke="none">
<path d="M0 2100 l0 -2100 2365 0 2365 0 0 2100 0 2100 -2365 0 -2365 0 0
-2100z m1869 -27 l117 -318 34 -3 c19 -2 39 -8 45 -13 5 -5 -49 -9 -143 -9
-95 0 -152 4 -152 10 0 6 20 10 44 10 25 0 48 5 51 10 3 6 -5 48 -20 95 l-26
85 -103 0 -102 0 -27 -82 c-15 -46 -27 -89 -27 -95 0 -8 15 -13 40 -13 22 0
40 -4 40 -10 0 -6 -40 -10 -100 -10 -60 0 -100 4 -100 10 0 6 13 10 29 10 16
0 36 6 43 14 8 7 63 153 124 324 60 171 110 309 112 307 2 -2 56 -146 121
-322z m-1128 296 c6 -12 44 -112 85 -223 41 -110 77 -208 81 -216 3 -8 40 91
82 220 l77 235 83 3 c90 3 130 -11 62 -22 -31 -5 -42 -12 -46 -29 -3 -12 -4
-148 -3 -302 l3 -280 43 -3 c23 -2 42 -7 42 -13 0 -5 -58 -9 -137 -9 -84 0
-133 4 -128 9 6 5 26 11 45 13 l35 3 3 269 c1 148 0 267 -3 264 -6 -6 -107
-323 -141 -443 -26 -93 -40 -119 -48 -94 -32 92 -180 498 -187 509 -5 9 -8
-96 -6 -245 l2 -260 30 -3 c17 -2 34 -8 40 -13 5 -5 -29 -9 -89 -9 -62 0 -95
4 -91 10 3 6 22 10 41 10 l34 0 -2 302 -3 301 -38 11 c-22 6 -36 13 -33 16 3
3 39 7 80 8 68 2 76 0 87 -19z m1949 4 c0 -17 -38 -93 -190 -379 -66 -124
-120 -229 -120 -235 0 -5 43 -9 98 -9 143 0 189 29 214 138 7 28 17 50 23 49
5 -2 9 -10 8 -18 -1 -8 -7 -53 -13 -101 l-12 -87 -216 -3 c-120 -2 -219 -2
-221 -1 -3 2 59 123 228 440 50 94 91 176 91 182 0 14 -147 14 -188 0 -22 -8
-35 -23 -51 -59 -12 -27 -21 -57 -21 -67 0 -10 -4 -24 -9 -32 -18 -28 -20 9
-4 100 l15 94 184 1 c147 0 184 -3 184 -13z m597 -95 c23 -62 73 -198 112
-303 38 -104 73 -198 76 -207 5 -12 18 -18 40 -18 19 0 37 -4 40 -10 4 -6 -47
-10 -144 -10 -94 0 -151 4 -151 10 0 6 19 10 43 10 67 0 69 5 38 100 l-27 85
-104 0 -103 0 -29 -83 c-16 -45 -26 -87 -23 -92 3 -6 21 -10 40 -10 19 0 37
-4 40 -10 4 -6 -32 -10 -101 -10 -66 0 -104 4 -99 9 6 5 23 11 40 13 21 2 34
11 43 31 13 26 137 373 190 530 14 42 29 77 32 77 3 0 24 -51 47 -112z m693
102 c0 -5 -11 -10 -24 -10 -35 0 -56 -10 -56 -27 0 -15 109 -234 132 -266 12
-16 21 -2 82 121 42 84 67 146 63 156 -4 11 -18 16 -42 16 -22 0 -34 4 -30 10
3 6 46 10 95 10 49 0 92 -4 95 -10 4 -6 -6 -10 -22 -10 -15 0 -34 -4 -41 -8
-7 -5 -49 -82 -93 -171 l-80 -163 3 -137 3 -136 38 -3 c20 -2 37 -7 37 -13 0
-5 -58 -9 -137 -9 -84 0 -133 4 -128 9 6 5 26 11 45 13 l35 3 3 127 3 127 -82
163 c-45 90 -88 171 -97 181 -8 9 -28 17 -44 17 -15 0 -28 5 -28 10 0 6 52 10
135 10 83 0 135 -4 135 -10z"/>
<path d="M1671 2105 c-22 -64 -41 -123 -41 -131 0 -11 19 -14 91 -14 69 0 90
3 87 13 -3 6 -22 62 -43 122 -21 61 -41 114 -45 118 -4 5 -26 -44 -49 -108z"/>
<path d="M3162 2098 c-23 -68 -42 -126 -42 -130 0 -5 41 -8 90 -8 50 0 90 3
90 8 0 13 -85 252 -90 252 -3 0 -24 -55 -48 -122z"/>
</g>
</svg>
